<svg width="289" height="345" viewBox="0 0 289 345" fill="none" xmlns="http://www.w3.org/2000/svg">
<path d="M188.351 0V80.4885C188.351 86.5675 183.428 91.4955 177.355 91.4955H99.6971C93.6242 91.4955 88.7013 96.4235 88.7013 102.502V180.239C88.7013 186.318 83.7783 191.246 77.7055 191.246H0.0476868C-6.02512 191.246 -10.9481 196.174 -10.9481 202.253V279.99C-10.9481 286.069 -15.8711 290.997 -21.9439 290.997H-99.6017C-105.674 290.997 -110.597 295.925 -110.597 302.004V379.741C-110.597 385.82 -115.52 390.748 -121.593 390.748H-202M288 0V80.4885C288 86.5675 283.077 91.4955 277.004 91.4955H199.346C193.274 91.4955 188.351 96.4235 188.351 102.502V180.239C188.351 186.318 183.428 191.246 177.355 191.246H99.6971C93.6243 191.246 88.7013 196.174 88.7013 202.253V279.99C88.7013 286.069 93.6243 290.997 99.6971 290.997H177.355C183.428 290.997 188.351 286.069 188.351 279.99V200.877L188.447 200.227C189.185 195.242 193.412 191.519 198.446 191.422L207.593 191.246H277.004C283.077 191.246 288 196.174 288 202.253V279.99C288 286.069 283.077 290.997 277.004 290.997H198.659L196.049 291.171C191.717 291.46 188.351 295.062 188.351 299.408V307.851M188.351 299.252V379.741C188.351 385.82 183.428 390.748 177.355 390.748H99.6971C93.6242 390.748 88.7013 395.676 88.7013 401.755V479.492C88.7013 485.571 83.7783 490.499 77.7055 490.499H0.0476868C-6.02512 490.499 -10.9481 495.426 -10.9481 501.505V579.242C-10.9481 585.321 -15.8711 590.249 -21.9439 590.249H-99.6017C-105.674 590.249 -110.597 595.177 -110.597 601.256V678.993C-110.597 685.072 -115.52 690 -121.593 690H-202" stroke="url(#paint0_linear_304_60)"/>
<defs>
<linearGradient id="paint0_linear_304_60" x1="288" y1="0" x2="-191.594" y2="592.868" gradientUnits="userSpaceOnUse">
<stop offset="0.0819437" stop-color="#F7F7F7"/>
<stop offset="0.208333" stop-color="#12C2E9"/>
<stop offset="0.526042" stop-color="#C471ED"/>
<stop offset="0.9375" stop-color="#F64F59"/>
</linearGradient>
</defs>
</svg>
