<svg width="211" height="397" viewBox="0 0 211 397" fill="none" xmlns="http://www.w3.org/2000/svg">
<path d="M62.6199 -30V19.6929C62.6199 23.446 65.6641 26.4885 69.4194 26.4885H117.44C121.196 26.4885 124.24 29.531 124.24 33.2841V81.2782C124.24 85.0313 127.284 88.0738 131.039 88.0738H179.06C182.816 88.0738 185.86 91.1163 185.86 94.8694V142.863C185.86 146.617 188.904 149.659 192.659 149.659H240.68C244.435 149.659 247.48 152.702 247.48 156.455V204.449C247.48 208.202 250.524 211.244 254.279 211.244H304M1 -30V19.6929C1 23.446 4.04421 26.4885 7.79944 26.4885H55.8205C59.5757 26.4885 62.6199 29.531 62.6199 33.2841V81.2782C62.6199 85.0313 65.6641 88.0738 69.4194 88.0738H117.44C121.196 88.0738 124.24 91.1163 124.24 94.8694V142.863C124.24 146.617 121.196 149.659 117.44 149.659H69.4194C65.6641 149.659 62.6199 146.617 62.6199 142.863V94.0199L62.5604 93.6186C62.1042 90.5406 59.4901 88.2423 56.3773 88.1825L50.7209 88.0738H7.79944C4.04421 88.0738 1 91.1163 1 94.8694V142.863C1 146.617 4.04421 149.659 7.79944 149.659H56.2454L57.8596 149.767C60.5384 149.945 62.6199 152.169 62.6199 154.852V160.065M62.6199 154.756V204.449C62.6199 208.202 65.6641 211.244 69.4194 211.244H117.44C121.196 211.244 124.24 214.287 124.24 218.04V266.034C124.24 269.787 127.284 272.83 131.039 272.83H179.06C182.816 272.83 185.86 275.872 185.86 279.625V327.619C185.86 331.372 188.904 334.415 192.659 334.415H240.68C244.435 334.415 247.48 337.457 247.48 341.21V389.204C247.48 392.958 250.524 396 254.279 396H304" stroke="url(#paint0_linear_304_58)"/>
<defs>
<linearGradient id="paint0_linear_304_58" x1="1" y1="-30" x2="296.999" y2="336.489" gradientUnits="userSpaceOnUse">
<stop offset="0.0819437" stop-color="#F7F7F7"/>
<stop offset="0.208333" stop-color="#12C2E9"/>
<stop offset="0.526042" stop-color="#C471ED"/>
<stop offset="0.9375" stop-color="#F64F59"/>
</linearGradient>
</defs>
</svg>
